<svg width="16" height="16" viewBox="0 0 16 16" xmlns="http://www.w3.org/2000/svg" xmlns:xlink="http://www.w3.org/1999/xlink" fill="currentColor" overflow="hidden"><path d="M16 8C16 12.4183 12.4183 16 8 16 3.58172 16 -8.88178e-16 12.4183 -8.88178e-16 8-2.66454e-15 3.58172 3.58172 -8.88178e-16 8 -8.88178e-16 12.4183-2.66454e-15 16 3.58172 16 8ZM8.5 4.5C8.5 4.22386 8.27614 4 8 4 7.72386 4 7.5 4.22386 7.5 4.5L7.5 10.293 5.354 8.146C5.15849 7.95049 4.84151 7.95049 4.646 8.146 4.45049 8.34151 4.45049 8.65849 4.646 8.854L7.646 11.854C7.84101 12.0495 8.1576 12.0499 8.35311 11.8549 8.3534 11.8546 8.3537 11.8543 8.354 11.854L11.354 8.854C11.5495 8.65849 11.5495 8.34151 11.354 8.146 11.1585 7.95049 10.8415 7.95049 10.646 8.146L8.5 10.293 8.5 4.5Z" fill="#FFFFFF"/></svg>